<svg xmlns="http://www.w3.org/2000/svg" viewBox="0 0 100 100" preserveAspectRatio="xMidYMid" width="200" height="200" style="shape-rendering: auto; display: block; background: rgb(255, 255, 255);" xmlns:xlink="http://www.w3.org/1999/xlink"><g><g transform="rotate(0 50 50)">
  <rect fill="#9e0142" height="30" width="16" ry="15" rx="8" y="7" x="42">
    <animate repeatCount="indefinite" begin="-0.4746209624258405s" dur="0.48780487804878053s" keyTimes="0;1" values="1;0" attributeName="opacity"></animate>
  </rect>
</g><g transform="rotate(9.72972972972973 50 50)">
  <rect fill="#d53e4f" height="30" width="16" ry="15" rx="8" y="7" x="42">
    <animate repeatCount="indefinite" begin="-0.4614370468029005s" dur="0.48780487804878053s" keyTimes="0;1" values="1;0" attributeName="opacity"></animate>
  </rect>
</g><g transform="rotate(19.45945945945946 50 50)">
  <rect fill="#f46d43" height="30" width="16" ry="15" rx="8" y="7" x="42">
    <animate repeatCount="indefinite" begin="-0.44825313117996046s" dur="0.48780487804878053s" keyTimes="0;1" values="1;0" attributeName="opacity"></animate>
  </rect>
</g><g transform="rotate(29.18918918918919 50 50)">
  <rect fill="#fdae61" height="30" width="16" ry="15" rx="8" y="7" x="42">
    <animate repeatCount="indefinite" begin="-0.4350692155570205s" dur="0.48780487804878053s" keyTimes="0;1" values="1;0" attributeName="opacity"></animate>
  </rect>
</g><g transform="rotate(38.91891891891892 50 50)">
  <rect fill="#fee08b" height="30" width="16" ry="15" rx="8" y="7" x="42">
    <animate repeatCount="indefinite" begin="-0.42188529993408047s" dur="0.48780487804878053s" keyTimes="0;1" values="1;0" attributeName="opacity"></animate>
  </rect>
</g><g transform="rotate(48.648648648648646 50 50)">
  <rect fill="#ffffbf" height="30" width="16" ry="15" rx="8" y="7" x="42">
    <animate repeatCount="indefinite" begin="-0.40870138431114045s" dur="0.48780487804878053s" keyTimes="0;1" values="1;0" attributeName="opacity"></animate>
  </rect>
</g><g transform="rotate(58.37837837837838 50 50)">
  <rect fill="#e6f598" height="30" width="16" ry="15" rx="8" y="7" x="42">
    <animate repeatCount="indefinite" begin="-0.3955174686882004s" dur="0.48780487804878053s" keyTimes="0;1" values="1;0" attributeName="opacity"></animate>
  </rect>
</g><g transform="rotate(68.10810810810811 50 50)">
  <rect fill="#abdda4" height="30" width="16" ry="15" rx="8" y="7" x="42">
    <animate repeatCount="indefinite" begin="-0.3823335530652604s" dur="0.48780487804878053s" keyTimes="0;1" values="1;0" attributeName="opacity"></animate>
  </rect>
</g><g transform="rotate(77.83783783783784 50 50)">
  <rect fill="#66c2a5" height="30" width="16" ry="15" rx="8" y="7" x="42">
    <animate repeatCount="indefinite" begin="-0.3691496374423204s" dur="0.48780487804878053s" keyTimes="0;1" values="1;0" attributeName="opacity"></animate>
  </rect>
</g><g transform="rotate(87.56756756756756 50 50)">
  <rect fill="#3288bd" height="30" width="16" ry="15" rx="8" y="7" x="42">
    <animate repeatCount="indefinite" begin="-0.3559657218193804s" dur="0.48780487804878053s" keyTimes="0;1" values="1;0" attributeName="opacity"></animate>
  </rect>
</g><g transform="rotate(97.29729729729729 50 50)">
  <rect fill="#5e4fa2" height="30" width="16" ry="15" rx="8" y="7" x="42">
    <animate repeatCount="indefinite" begin="-0.3427818061964404s" dur="0.48780487804878053s" keyTimes="0;1" values="1;0" attributeName="opacity"></animate>
  </rect>
</g><g transform="rotate(107.02702702702703 50 50)">
  <rect fill="#9e0142" height="30" width="16" ry="15" rx="8" y="7" x="42">
    <animate repeatCount="indefinite" begin="-0.32959789057350036s" dur="0.48780487804878053s" keyTimes="0;1" values="1;0" attributeName="opacity"></animate>
  </rect>
</g><g transform="rotate(116.75675675675676 50 50)">
  <rect fill="#d53e4f" height="30" width="16" ry="15" rx="8" y="7" x="42">
    <animate repeatCount="indefinite" begin="-0.31641397495056034s" dur="0.48780487804878053s" keyTimes="0;1" values="1;0" attributeName="opacity"></animate>
  </rect>
</g><g transform="rotate(126.48648648648648 50 50)">
  <rect fill="#f46d43" height="30" width="16" ry="15" rx="8" y="7" x="42">
    <animate repeatCount="indefinite" begin="-0.3032300593276203s" dur="0.48780487804878053s" keyTimes="0;1" values="1;0" attributeName="opacity"></animate>
  </rect>
</g><g transform="rotate(136.21621621621622 50 50)">
  <rect fill="#fdae61" height="30" width="16" ry="15" rx="8" y="7" x="42">
    <animate repeatCount="indefinite" begin="-0.2900461437046803s" dur="0.48780487804878053s" keyTimes="0;1" values="1;0" attributeName="opacity"></animate>
  </rect>
</g><g transform="rotate(145.94594594594594 50 50)">
  <rect fill="#fee08b" height="30" width="16" ry="15" rx="8" y="7" x="42">
    <animate repeatCount="indefinite" begin="-0.2768622280817403s" dur="0.48780487804878053s" keyTimes="0;1" values="1;0" attributeName="opacity"></animate>
  </rect>
</g><g transform="rotate(155.67567567567568 50 50)">
  <rect fill="#ffffbf" height="30" width="16" ry="15" rx="8" y="7" x="42">
    <animate repeatCount="indefinite" begin="-0.2636783124588003s" dur="0.48780487804878053s" keyTimes="0;1" values="1;0" attributeName="opacity"></animate>
  </rect>
</g><g transform="rotate(165.40540540540542 50 50)">
  <rect fill="#e6f598" height="30" width="16" ry="15" rx="8" y="7" x="42">
    <animate repeatCount="indefinite" begin="-0.2504943968358603s" dur="0.48780487804878053s" keyTimes="0;1" values="1;0" attributeName="opacity"></animate>
  </rect>
</g><g transform="rotate(175.13513513513513 50 50)">
  <rect fill="#abdda4" height="30" width="16" ry="15" rx="8" y="7" x="42">
    <animate repeatCount="indefinite" begin="-0.23731048121292025s" dur="0.48780487804878053s" keyTimes="0;1" values="1;0" attributeName="opacity"></animate>
  </rect>
</g><g transform="rotate(184.86486486486487 50 50)">
  <rect fill="#66c2a5" height="30" width="16" ry="15" rx="8" y="7" x="42">
    <animate repeatCount="indefinite" begin="-0.22412656558998023s" dur="0.48780487804878053s" keyTimes="0;1" values="1;0" attributeName="opacity"></animate>
  </rect>
</g><g transform="rotate(194.59459459459458 50 50)">
  <rect fill="#3288bd" height="30" width="16" ry="15" rx="8" y="7" x="42">
    <animate repeatCount="indefinite" begin="-0.21094264996704024s" dur="0.48780487804878053s" keyTimes="0;1" values="1;0" attributeName="opacity"></animate>
  </rect>
</g><g transform="rotate(204.32432432432432 50 50)">
  <rect fill="#5e4fa2" height="30" width="16" ry="15" rx="8" y="7" x="42">
    <animate repeatCount="indefinite" begin="-0.1977587343441002s" dur="0.48780487804878053s" keyTimes="0;1" values="1;0" attributeName="opacity"></animate>
  </rect>
</g><g transform="rotate(214.05405405405406 50 50)">
  <rect fill="#9e0142" height="30" width="16" ry="15" rx="8" y="7" x="42">
    <animate repeatCount="indefinite" begin="-0.1845748187211602s" dur="0.48780487804878053s" keyTimes="0;1" values="1;0" attributeName="opacity"></animate>
  </rect>
</g><g transform="rotate(223.78378378378378 50 50)">
  <rect fill="#d53e4f" height="30" width="16" ry="15" rx="8" y="7" x="42">
    <animate repeatCount="indefinite" begin="-0.1713909030982202s" dur="0.48780487804878053s" keyTimes="0;1" values="1;0" attributeName="opacity"></animate>
  </rect>
</g><g transform="rotate(233.51351351351352 50 50)">
  <rect fill="#f46d43" height="30" width="16" ry="15" rx="8" y="7" x="42">
    <animate repeatCount="indefinite" begin="-0.15820698747528017s" dur="0.48780487804878053s" keyTimes="0;1" values="1;0" attributeName="opacity"></animate>
  </rect>
</g><g transform="rotate(243.24324324324326 50 50)">
  <rect fill="#fdae61" height="30" width="16" ry="15" rx="8" y="7" x="42">
    <animate repeatCount="indefinite" begin="-0.14502307185234015s" dur="0.48780487804878053s" keyTimes="0;1" values="1;0" attributeName="opacity"></animate>
  </rect>
</g><g transform="rotate(252.97297297297297 50 50)">
  <rect fill="#fee08b" height="30" width="16" ry="15" rx="8" y="7" x="42">
    <animate repeatCount="indefinite" begin="-0.13183915622940015s" dur="0.48780487804878053s" keyTimes="0;1" values="1;0" attributeName="opacity"></animate>
  </rect>
</g><g transform="rotate(262.7027027027027 50 50)">
  <rect fill="#ffffbf" height="30" width="16" ry="15" rx="8" y="7" x="42">
    <animate repeatCount="indefinite" begin="-0.11865524060646013s" dur="0.48780487804878053s" keyTimes="0;1" values="1;0" attributeName="opacity"></animate>
  </rect>
</g><g transform="rotate(272.43243243243245 50 50)">
  <rect fill="#e6f598" height="30" width="16" ry="15" rx="8" y="7" x="42">
    <animate repeatCount="indefinite" begin="-0.10547132498352012s" dur="0.48780487804878053s" keyTimes="0;1" values="1;0" attributeName="opacity"></animate>
  </rect>
</g><g transform="rotate(282.1621621621622 50 50)">
  <rect fill="#abdda4" height="30" width="16" ry="15" rx="8" y="7" x="42">
    <animate repeatCount="indefinite" begin="-0.0922874093605801s" dur="0.48780487804878053s" keyTimes="0;1" values="1;0" attributeName="opacity"></animate>
  </rect>
</g><g transform="rotate(291.8918918918919 50 50)">
  <rect fill="#66c2a5" height="30" width="16" ry="15" rx="8" y="7" x="42">
    <animate repeatCount="indefinite" begin="-0.07910349373764008s" dur="0.48780487804878053s" keyTimes="0;1" values="1;0" attributeName="opacity"></animate>
  </rect>
</g><g transform="rotate(301.6216216216216 50 50)">
  <rect fill="#3288bd" height="30" width="16" ry="15" rx="8" y="7" x="42">
    <animate repeatCount="indefinite" begin="-0.06591957811470008s" dur="0.48780487804878053s" keyTimes="0;1" values="1;0" attributeName="opacity"></animate>
  </rect>
</g><g transform="rotate(311.35135135135135 50 50)">
  <rect fill="#5e4fa2" height="30" width="16" ry="15" rx="8" y="7" x="42">
    <animate repeatCount="indefinite" begin="-0.05273566249176006s" dur="0.48780487804878053s" keyTimes="0;1" values="1;0" attributeName="opacity"></animate>
  </rect>
</g><g transform="rotate(321.0810810810811 50 50)">
  <rect fill="#9e0142" height="30" width="16" ry="15" rx="8" y="7" x="42">
    <animate repeatCount="indefinite" begin="-0.03955174686882004s" dur="0.48780487804878053s" keyTimes="0;1" values="1;0" attributeName="opacity"></animate>
  </rect>
</g><g transform="rotate(330.81081081081084 50 50)">
  <rect fill="#d53e4f" height="30" width="16" ry="15" rx="8" y="7" x="42">
    <animate repeatCount="indefinite" begin="-0.02636783124588003s" dur="0.48780487804878053s" keyTimes="0;1" values="1;0" attributeName="opacity"></animate>
  </rect>
</g><g transform="rotate(340.5405405405405 50 50)">
  <rect fill="#f46d43" height="30" width="16" ry="15" rx="8" y="7" x="42">
    <animate repeatCount="indefinite" begin="-0.013183915622940015s" dur="0.48780487804878053s" keyTimes="0;1" values="1;0" attributeName="opacity"></animate>
  </rect>
</g><g transform="rotate(350.27027027027026 50 50)">
  <rect fill="#fdae61" height="30" width="16" ry="15" rx="8" y="7" x="42">
    <animate repeatCount="indefinite" begin="0s" dur="0.48780487804878053s" keyTimes="0;1" values="1;0" attributeName="opacity"></animate>
  </rect>
</g><g></g></g><!-- [ldio] generated by https://loading.io --></svg>